<?xml version="1.0" encoding="UTF-8"?>
<svg id="_Слой_1" data-name="Слой 1" xmlns="http://www.w3.org/2000/svg" viewBox="0 0 745.57 430.11">
  <defs>
    <style>
      .cls-1 {
        stroke-width: 4px;
      }

      .cls-1, .cls-2 {
        fill: none;
        stroke: #fff;
        stroke-linecap: round;
        stroke-linejoin: round;
      }

      .cls-2 {
        stroke-width: 4px;
      }
    </style>
  </defs>
  <g>
    <path class="cls-2" d="m538.77,298.28c3.08-1.63,6.32-3.1,9.67-4.39,5.96-2.29,38.98-15.13,65.57,2.29"/>
    <path class="cls-2" d="m636.48,345.24c-4.59,15.59-31.18,38.52-89.88,19.26-48.05-15.77-41.13-43.45-16.63-60.83"/>
    <path class="cls-2" d="m626.85,308.1c0-7.34-.92-26.6-5.5-31.18-4.59-4.59-13.71,13.1-14.65,15.26"/>
    <path class="cls-2" d="m568.55,288.31c-1.31-7.72-3.15-17.81-5.9-18.73s-15.59,19.26-17.43,24.76"/>
    <path class="cls-2" d="m570.91,311.77c-4.59,6.42,33.93,18.34,38.52,11.01,4.58-7.34-30.95-21.62-38.52-11.01Z"/>
    <path class="cls-2" d="m554.4,308.1c-4.68,4.68-28.43-.92-23.85-7.34,3.89-5.43,29.35,1.84,23.85,7.34Z"/>
    <path class="cls-2" d="m558.07,313.6c-.92-.92-.92-3.67,0-3.67s4.59.92,4.59,2.75c-.01.92-3.67,1.84-4.59.92Z"/>
    <path class="cls-2" d="m558.07,313.6c-.92.92-25.68,13.76-25.68,13.76-3.67-2.75-4.59-3.67-6.42-2.75s-1.83,6.42,0,8.25"/>
    <path class="cls-2" d="m573.72,287.61c16.45-15.28,21.03-52.88,44.88-76.73s49.52-27.51,59.61-27.51c.92-16.51,4.59-30.27-10.09-72.45s1.28-77.2,10.09-93.55c6.42-11.92,15.59-17.43,22.01-14.67,6.42,2.75,11.01,11.01,6.42,21.09s-17.43,38.52-15.59,57.78,22.01,62.36,12.84,104.55c15.59,6.42,37.6,22.93,39.44,49.52,1.83,26.6-7.34,42.19-10.09,56.86s-6.19,44.33-18.34,58.7c-10.09,11.92-21.69,11.02-21.09-7.34.92-28.43-7.34-77.04,20.18-88.04"/>
    <path class="cls-2" d="m693.34,312.62c-7.79,18.41-34.39,49.59-40.81,57.85-6.42,8.25-25.68,48.61-43.1,45.86-17.43-2.75,10.12-42.61,13.32-53.86"/>
    <path class="cls-2" d="m542.57,363.1c-17.52,3.69-65.93,10.51-74.38-6.4-5.5-11.01,38.01-11.92,45.6-13.76"/>
    <path class="cls-2" d="m473.69,362.21c-2.81-3.24,2.75-4.59,8.25-6.42"/>
    <path class="cls-2" d="m617.68,405.31c-1.83,2.75-.92,8.25-.92,8.25"/>
    <path class="cls-2" d="m609.43,404.4s-4.59,7.34-3.67,9.17"/>
    <path class="cls-2" d="m706.64,345.7c-2.75,3.67-1.83,9.17,0,11.01"/>
    <path class="cls-2" d="m697.47,346.62c-1.83,4.59-1.62,8.63-1.62,8.63"/>
    <line class="cls-2" x1="583.26" y1="310" x2="578.77" y2="319.53"/>
    <line class="cls-2" x1="540.26" y1="300" x2="536.14" y2="307.66"/>
  </g>
  <g>
    <path class="cls-2" d="m130.62,314.78c3.06,1.44,6.07,2.85,9.01,4.25,20.54,9.77,77.32,52.29,145.7,33.38"/>
    <path class="cls-2" d="m50.38,203.48c-5.67,12.07-6.35,42.14,8.49,65.19,6.56,10.19,18.22,19.31,35.62,28.52"/>
    <path class="cls-2" d="m119.26,174.55c-16.63-.35-35.93,5.38-50.02,12.88"/>
    <path class="cls-2" d="m161.85,216.23c-.68-5.03-3.04-26.44-21.05-36.45"/>
    <path class="cls-2" d="m303.9,373.92c-27.1,28.47-28.31,34.46-29.47,45-1.32,12-28.17,15.66-27.27-10.33s25.41-52.23,42-55.23"/>
    <path class="cls-2" d="m160.63,208.99c9.01,4.7,27.77,1.4,70.61,6.66s74.23,18.72,91.64,48.87c13.26,10.7,31.18,50.79.4,88.88"/>
    <path class="cls-2" d="m225.64,310.27c-2.28,15.83,18.39,37.4,40.95,40.25s27.44.7,31.63,9.74,12,33.84,22.94,38.26,13.29-5.5,10.36-16.19-14.7-48.25-13.61-56.53,5.28-15.5,2.45-25.46"/>
    <path class="cls-2" d="m265.71,368.42c-17.62,9-53.53,27.51-63.17,21.85-11.24-6.6-1.65-19.59,26.84-34.62"/>
    <path class="cls-2" d="m111.41,280c-10.42,10.29-34.31,35.71-43.05,42.07s-10.46,15.46-5.41,19.95c5.04,4.49,24.57-4.08,41.92-12.36,17.35-8.27,51.89-31.45,58.88-39.79"/>
    <path class="cls-2" d="m74.05,285.08c-15.85,5.85-64.9,22.76-71.68,8.28-5.21-11.12,45.59-26.47,51.71-31.58"/>
    <path class="cls-2" d="m140.8,179.78c-1.43-9.27-5.39-22.03-8.68-24.54-3.3-2.51-11.9,15.3-12.86,19.31"/>
    <path class="cls-2" d="m69.25,187.45c-6.03-6.43-17.11-11.71-20.21-12.77s-.67,22.26,1.05,29.42"/>
    <ellipse class="cls-1" cx="130.37" cy="205.91" rx="17.21" ry="4.53" transform="translate(-43.86 35.5) rotate(-13.3)"/>
    <ellipse class="cls-1" cx="73.59" cy="219.5" rx="17.21" ry="4.53" transform="translate(-48.51 22.81) rotate(-13.3)"/>
    <polyline class="cls-2" points="62.49 192.06 55.9 187.05 57.18 196.48"/>
    <polyline class="cls-2" points="125.98 175.29 130.17 168.07 132.81 176.58"/>
    <path class="cls-2" d="m97.37,225.74c.49,3.63,8.18.36,6.47-6.79,1.71,7.16,10.52,6.7,8.48,2.54"/>
    <polyline class="cls-2" points="100.54 216.44 103.74 218.23 105.52 215.03"/>
    <path class="cls-2" d="m72.31,332.55c-1.79.24-5.53,6.22-3.26,9.56"/>
    <path class="cls-2" d="m65.56,329.82c-1.67,1.14-4.81,3.35-5.38,6.64"/>
    <path class="cls-2" d="m14.49,289.38c-2.56,1.26-5.65,5.33-5.41,7.12"/>
    <path class="cls-2" d="m9.53,286.41c-1.79.24-6.72,2.74-7.47,4.66"/>
    <path class="cls-2" d="m323.81,385.82c1.38,3.46,5.03,8.19,8.76,6.44"/>
    <path class="cls-2" d="m319.18,391.92c1.26,2.56,2.99,6.73,6.64,7.68"/>
    <path class="cls-2" d="m211.19,382c-1.67,1.14-6.91,5.44-4.84,9.29"/>
    <path class="cls-2" d="m205.09,377.37c-2.56,1.26-5.77,6.09-6.69,8.57"/>
    <line class="cls-2" x1="135.83" y1="200.23" x2="138.39" y2="208.27"/>
    <line class="cls-2" x1="78.57" y1="213.9" x2="81.57" y2="221.88"/>
  </g>
  <path class="cls-2" d="m370.16,229.05c-.65-11.04,11.59-20.26,18.8-15.57,10.29,6.69,3.97,42.23-1.11,51.2s-41.31-15.04-41.93-30.71c-.41-10.42,18.42-14.72,24.24-4.92Z"/>
</svg>