<?xml version="1.0" encoding="UTF-8"?>
<svg id="_Слой_1" data-name="Слой 1" xmlns="http://www.w3.org/2000/svg" viewBox="0 0 744.55 410.56">
  <defs>
    <style>
      .cls-1 {
        fill: none;
        stroke: #fff;
        stroke-linecap: round;
        stroke-linejoin: round;
        stroke-width: 4px;
      }
    </style>
  </defs>
  <path class="cls-1" d="m120.91,376.1c0-70.28,27.01-221.61,43.22-254.07,0-91.89,0-108.1,16.21-118.91s81.09,59.48,91.89,75.69c16.21-5.4,183.79-16.21,248.67,0,27.01-32.42,64.88-70.28,81.09-64.88,16.21,5.4,5.4,113.5,5.4,124.31s32.42,151.37,27.01,237.86"/>
  <path class="cls-1" d="m628.68,268.98c70.19,14.76,113.88,35.49,113.88,58.5,0,44.76-165.76,81.09-370.28,81.09S2,372.28,2,327.48c0-24.13,48.16-45.83,124.59-60.64"/>
  <ellipse class="cls-1" cx="515.54" cy="273.4" rx="81.09" ry="32.42"/>
  <line class="cls-1" x1="553.6" y1="244.76" x2="553.36" y2="295.01"/>
  <ellipse class="cls-1" cx="254.91" cy="273.08" rx="81.09" ry="32.42"/>
  <line class="cls-1" x1="293" y1="244.43" x2="292.73" y2="294.69"/>
  <polyline class="cls-1" points="374.98 257.19 385.78 268 396.59 257.19"/>
  <line class="cls-1" x1="385.78" y1="273.4" x2="385.78" y2="354.49"/>
</svg>